<mxfile host="app.diagrams.net" modified="2024-04-01T15:45:25.756Z" agent="Mozilla/5.0 (Macintosh; Intel Mac OS X 10_15_7) AppleWebKit/537.36 (KHTML, like Gecko) Chrome/113.0.0.0 Safari/537.36" version="24.2.1" etag="2alhymowY568-xMWP-eS" type="github">
  <diagram name="Trang-1" id="cKVeFUdPySGMX1__dL8V">
    <mxGraphModel>
      <root>
        <mxCell id="0" />
        <mxCell id="1" parent="0" />
      </root>
    </mxGraphModel>
  </diagram>
</mxfile>
